<?xml version="1.0" encoding="UTF-8"?>
<svg width="98px" height="48px" viewBox="0 0 98 48" version="1.1" xmlns="http://www.w3.org/2000/svg" xmlns:xlink="http://www.w3.org/1999/xlink">
    <title>Ritz Logo Light</title>
    <defs>
        <polygon id="path-1" points="0 0 33.5461976 0 33.5461976 26.5691668 0 26.5691668"></polygon>
        <polygon id="path-3" points="0 0 4.71519432 0 4.71519432 6.49187189 0 6.49187189"></polygon>
        <polygon id="path-5" points="0 47.99994 98 47.99994 98 0 0 0"></polygon>
    </defs>
    <g id="Export" stroke="none" stroke-width="1" fill="none" fill-rule="evenodd">
        <g id="Ritz-Logo-Light">
            <polygon id="Fill-1" fill="#FFFFFF" points="27.8973649 35.6789554 36.1601816 35.6789554 38.1318813 9.13678858 29.8990023 9.13678858"></polygon>
            <polygon id="Fill-2" fill="#FFFFFF" points="30.5652368 0 30.1766449 5.86259267 38.3292907 5.86319267 38.7166851 0"></polygon>
            <g id="Group-35" transform="translate(0.000000, 0.000060)">
                <g id="Group-5" transform="translate(64.453802, 9.109729)">
                    <mask id="mask-2" fill="white">
                        <use xlink:href="#path-1"></use>
                    </mask>
                    <g id="Clip-4"></g>
                    <path d="M33.5464371,26.5691668 L11.9900656,26.5691668 L0,26.5691668 C0,23.7041704 3.46259921,20.5049744 4.4715011,19.5443756 L19.4762973,5.69279288 L7.89278623,5.69279288 C5.3690346,5.69279288 4.24098049,3.28919589 3.62007173,2.08799739 C3.26501011,1.40219825 3.10993261,1.11059861 2.59081217,0 L33.4596177,0 C33.3201078,0.494999381 33.0883897,1.20899849 32.8782267,1.81919773 C32.6680638,2.43059696 32.3998216,3.07499616 32.0746977,3.70199537 C31.7489751,4.32839459 31.338828,4.99739375 29.2862965,7.27319091 L15.3137536,20.839174 L27.8696425,20.839174 C30.4628497,20.839174 31.2286571,22.7825715 33.5464371,26.5691668" id="Fill-3" fill="#FFFFFF" mask="url(#mask-2)"></path>
                </g>
                <path d="M12.4538012,21.4452332 C12.4538012,21.4452332 15.2637576,21.3498333 16.8085451,23.7684303 L24.1534706,35.6790154 L16.8923708,35.6790154 C12.7459935,35.6790154 11.3173645,32.8578189 10.8694959,32.1498198 L4.07482603,21.4488332 L0.000299377417,21.4452332 L1.90134598,18.2868371 C2.44381786,17.4006382 3.04676397,16.7400391 3.70958558,16.3110396 C3.70958558,16.3110396 4.92865042,15.5010406 7.42964936,15.4704407 C9.49834731,15.4470407 12.6124712,15.3540408 12.6124712,15.3540408 C14.3207188,15.3408408 15.3278244,14.5284418 16.0139974,13.7496428 C16.5995796,13.0836436 17.136064,11.962245 17.1210951,10.6740467 C17.106725,9.45364818 16.676819,8.48644939 16.024775,7.72085035 C15.1080814,6.6432517 13.8542887,6.08705239 12.5855272,6.10385237 L4.78315299,6.09785238 L0.961899641,6.11585236 L2.85276741,2.99105626 C3.3964368,2.10425737 3.99878416,1.44665819 4.66100701,1.01885873 C5.3226311,0.589259263 6.5554673,0.00845998942 8.89599995,0.00845998942 L14.9464176,5.99999248e-05 C22.4206741,5.99999248e-05 25.1024971,6.35765205 25.1024971,10.6602467 C25.1024971,14.7078416 23.5181918,21.4452332 14.1740238,21.4452332 L12.4538012,21.4452332 Z" id="Fill-6" fill="#FFFFFF"></path>
                <path d="M62.9635615,9.10948861 L61.1481368,13.1552836 C60.8625308,13.7000829 60.6260226,14.8286815 57.083789,14.8286815 L48.223415,14.8286815 C48.223415,14.8286815 49.683778,16.3994795 49.5334906,18.2252772 L48.7119989,28.8938639 C48.6772711,29.3630633 48.628772,29.6450629 48.8305524,29.8286627 C49.0065863,29.9894625 49.3221301,29.9852625 49.6137237,29.9852625 L60.4996853,29.9852625 L60.1308524,35.6786554 L42.4358508,35.6786554 C39.7252876,35.6786554 40.2234516,32.5160594 40.3042835,31.3892608 L42.6220635,0.000299999625 L50.8345848,0.000299999625 L50.1741582,9.10948861 L62.9635615,9.10948861 Z" id="Fill-8" fill="#FFFFFF"></path>
                <polygon id="Fill-10" fill="#FFFFFF" points="10.3225333 47.9098201 9.43158615 47.9098201 7.01141911 44.8534239 5.67080704 46.2148222 5.67080704 47.9098201 4.96008505 47.9098201 4.96008505 41.597828 5.67080704 41.597828 5.67080704 45.3670233 9.28788499 41.597828 10.2057762 41.597828 7.5059906 44.3572246"></polygon>
                <path d="M14.9386936,42.391627 L13.499287,45.610623 L16.3691189,45.610623 L14.9386936,42.391627 Z M18.1510133,47.9098201 L17.3858046,47.9098201 L16.6481387,46.2418222 L13.2202672,46.2418222 L12.4730212,47.9098201 L11.7443366,47.9098201 L14.6147672,41.5534281 L15.2805826,41.5534281 L18.1510133,47.9098201 Z" id="Fill-12" fill="#FFFFFF"></path>
                <polygon id="Fill-14" fill="#FFFFFF" points="21.9840022 47.9098201 21.2732803 47.9098201 21.2732803 45.4120232 18.6549254 41.597828 19.5183298 41.597828 21.6373232 44.7538241 23.774878 41.597828 24.6023571 41.597828 21.9840022 45.4036232"></polygon>
                <path d="M28.3097872,42.391627 L26.8703806,45.610623 L29.7402125,45.610623 L28.3097872,42.391627 Z M31.5221069,47.9098201 L30.7568982,47.9098201 L30.0192322,46.2418222 L26.5913608,46.2418222 L25.8441148,47.9098201 L25.1154302,47.9098201 L27.9858608,41.5534281 L28.6516762,41.5534281 L31.5221069,47.9098201 Z" id="Fill-16" fill="#FFFFFF"></path>
                <polygon id="Fill-18" fill="#FFFFFF" points="39.0261216 47.9098201 38.1351744 47.9098201 35.7150074 44.8534239 34.3743953 46.2148222 34.3743953 47.9098201 33.6636733 47.9098201 33.6636733 41.597828 34.3743953 41.597828 34.3743953 45.3670233 37.9914732 41.597828 38.9093644 41.597828 36.2101776 44.3572246"></polygon>
                <g id="Group-22" transform="translate(40.537798, 41.508068)">
                    <mask id="mask-4" fill="white">
                        <use xlink:href="#path-3"></use>
                    </mask>
                    <g id="Clip-21"></g>
                    <path d="M1.02566703,2.06699742 C1.07356742,2.18759727 1.16038687,2.29739713 1.28672414,2.396397 C1.41306141,2.49599688 1.58670031,2.58599677 1.8082396,2.66759667 C2.03037764,2.74919656 2.31538494,2.82539647 2.6632615,2.89799638 C3.36500217,3.05399618 3.88232635,3.27119591 4.21583279,3.54779557 C4.54874048,3.82499522 4.71519432,4.20719474 4.71519432,4.69499413 C4.71519432,4.96559379 4.66130639,5.21279348 4.55532678,5.43539321 C4.44814966,5.65799293 4.30145473,5.84819269 4.11404447,6.00419249 C3.9266342,6.1607923 3.70150239,6.28139215 3.4374515,6.36539204 C3.17280187,6.44939194 2.88539955,6.49199189 2.57344828,6.49199189 C2.06989546,6.49199189 1.60885424,6.41039199 1.19212088,6.24719219 C0.77538751,6.08459239 0.3778143,5.83259271 0,5.49119314 L0.440683558,4.96799379 C0.770597472,5.26859341 1.10350516,5.49299313 1.44000538,5.63999295 C1.77530808,5.78759277 2.16270246,5.86079267 2.60039225,5.86079267 C3.02610693,5.86079267 3.36679843,5.7611928 3.62186799,5.56319305 C3.87693755,5.3639933 4.00387358,5.10239362 4.00387358,4.77719403 C4.00387358,4.62659422 3.97992338,4.49279438 3.932023,4.37519453 C3.88412261,4.25819468 3.79969818,4.15139481 3.67934846,4.05479493 C3.55899874,3.95819505 3.39194614,3.87119516 3.17878942,3.79259526 C2.96563269,3.71459536 2.69319924,3.63899545 2.36268658,3.56699554 C2.00163741,3.48899564 1.68788988,3.39839575 1.42024647,3.29579588 C1.1520043,3.19379601 0.931063767,3.07019616 0.756826111,2.92559634 C0.582588454,2.78159652 0.45325741,2.61299673 0.369431733,2.42039697 C0.285007301,2.22719722 0.243094463,1.9985975 0.243094463,1.73399783 C0.243094463,1.48079815 0.293988624,1.24919844 0.395776945,1.0385987 C0.497565267,0.827998965 0.641865182,0.645599193 0.828077936,0.491999385 C1.01369193,0.338399577 1.2328362,0.218399727 1.48491199,0.130799837 C1.73638902,0.0437999453 2.012415,0 2.31239117,0 C2.7746299,0 3.17759191,0.0635999205 3.52247469,0.191399761 C3.86795623,0.318599602 4.20206143,0.509999363 4.52598779,0.766799042 L4.1122482,1.31639835 C3.81825958,1.07579866 3.52247469,0.901798873 3.22549229,0.793199009 C2.92910865,0.685199144 2.61835489,0.630599212 2.29442853,0.630599212 C2.09025313,0.630599212 1.90583664,0.658199177 1.74117906,0.71219911 C1.57592272,0.766799042 1.43521534,0.838798952 1.31845815,0.929398838 C1.2011022,1.01939873 1.11128897,1.12799859 1.04841971,1.25399843 C0.984951702,1.38059827 0.953816451,1.5161981 0.953816451,1.66079792 C0.953816451,1.81079774 0.977766644,1.94639757 1.02566703,2.06699742" id="Fill-20" fill="#FFFFFF" mask="url(#mask-4)"></path>
                </g>
                <path d="M49.5748046,45.0386437 C49.5328918,45.1334436 49.4778064,45.2156435 49.4089496,45.2846434 C49.339494,45.3542433 49.2574646,45.4094432 49.1628613,45.4508432 C49.0682581,45.4928431 48.9670685,45.5132431 48.8604901,45.5132431 C48.7539118,45.5132431 48.6539197,45.4928431 48.5587177,45.4508432 C48.4641144,45.4094432 48.382085,45.3542433 48.3132282,45.2846434 C48.2443714,45.2156435 48.1886872,45.1334436 48.1473731,45.0386437 C48.1054603,44.9438438 48.0851026,44.8430439 48.0851026,44.7362441 C48.0851026,44.6294442 48.1054603,44.5286443 48.1473731,44.4332445 C48.1886872,44.3384446 48.2443714,44.2562447 48.3132282,44.1872448 C48.382085,44.1176449 48.4641144,44.0624449 48.5587177,44.021045 C48.6539197,43.979645 48.7539118,43.9586451 48.8604901,43.9586451 C48.9670685,43.9586451 49.0682581,43.979645 49.1628613,44.021045 C49.2574646,44.0624449 49.339494,44.1176449 49.4089496,44.1872448 C49.4778064,44.2562447 49.5328918,44.3384446 49.5748046,44.4332445 C49.6161187,44.5286443 49.6364764,44.6294442 49.6364764,44.7362441 C49.6364764,44.8430439 49.6161187,44.9438438 49.5748046,45.0386437" id="Fill-23" fill="#FFFFFF"></path>
                <polygon id="Fill-25" fill="#FFFFFF" points="55.8255057 46.1786423 55.7889817 46.1786423 53.4951519 42.8060465 53.4951519 47.9096401 52.8017938 47.9096401 52.8017938 41.598248 53.5220959 41.598248 55.8165244 45.0428437 58.1109529 41.598248 58.8306562 41.598248 58.8306562 47.9096401 58.1199343 47.9096401 58.1199343 42.7970465"></polygon>
                <path d="M64.1663402,42.391627 L62.7269336,45.610623 L65.5973643,45.610623 L64.1663402,42.391627 Z M67.3786599,47.9098201 L66.6134512,47.9098201 L65.8757853,46.2418222 L62.4479138,46.2418222 L61.7012665,47.9098201 L60.9719832,47.9098201 L63.8424138,41.5534281 L64.508828,41.5534281 L67.3786599,47.9098201 Z" id="Fill-27" fill="#FFFFFF"></path>
                <path d="M73.37016,42.5867468 C73.0875477,42.366547 72.6905733,42.2567472 72.1798354,42.2567472 L70.2314872,42.2567472 L70.2314872,44.825944 L72.1708541,44.825944 C72.4049672,44.825944 72.6211177,44.795944 72.8199043,44.7359441 C73.0180922,44.6753442 73.1893361,44.5895443 73.3342347,44.4779444 C73.4785346,44.3663445 73.5911005,44.2289447 73.6725312,44.0663449 C73.7533631,43.9031451 73.7940784,43.7195454 73.7940784,43.5137456 C73.7940784,43.1159461 73.6527723,42.8069465 73.37016,42.5867468 L73.37016,42.5867468 Z M73.8569477,47.9099401 L72.0307454,45.4571432 L70.2314872,45.4571432 L70.2314872,47.9099401 L69.5201664,47.9099401 L69.5201664,41.597948 L72.2283345,41.597948 C72.5762111,41.597948 72.8899586,41.6435479 73.1683796,41.7335478 C73.4479981,41.8235477 73.6863026,41.9519476 73.8838917,42.1169474 C74.0820795,42.2825471 74.2353607,42.4805469 74.3431366,42.7121466 C74.4509125,42.9437463 74.5053992,43.201146 74.5053992,43.4837456 C74.5053992,43.7483453 74.4628876,43.984145 74.3790619,44.1917448 C74.2946375,44.3993445 74.1766828,44.5799443 74.0240003,44.7329441 C73.8707191,44.8865439 73.6892963,45.0143437 73.4791334,45.1163436 C73.2695692,45.2189435 73.0414436,45.2909434 72.7953554,45.3329433 L74.7299322,47.9099401 L73.8569477,47.9099401 Z" id="Fill-29" fill="#FFFFFF"></path>
                <mask id="mask-6" fill="white">
                    <use xlink:href="#path-5"></use>
                </mask>
                <g id="Clip-32"></g>
                <polygon id="Fill-31" fill="#FFFFFF" mask="url(#mask-6)" points="76.9890941 47.9099401 77.6998161 47.9099401 77.6998161 41.597948 76.9890941 41.597948"></polygon>
                <polygon id="Fill-33" fill="#FFFFFF" mask="url(#mask-6)" points="85.077254 41.598128 85.7706121 41.598128 85.7706121 47.9101201 85.2029926 47.9101201 81.1362497 42.7345266 81.1362497 47.9101201 80.4434904 47.9101201 80.4434904 41.598128 81.1093057 41.598128 85.077254 46.6567217"></polygon>
                <polygon id="Fill-34" fill="#FFFFFF" mask="url(#mask-6)" points="93.0045285 42.2474472 89.1623188 42.2474472 89.1623188 44.4026445 92.5997703 44.4026445 92.5997703 45.0518437 89.1623188 45.0518437 89.1623188 47.2604409 93.0494352 47.2604409 93.0494352 47.9096401 88.4515968 47.9096401 88.4515968 41.598248 93.0045285 41.598248"></polygon>
            </g>
        </g>
    </g>
</svg>